<?xml version="1.0" encoding="utf-8"?>
<!-- Generator: Adobe Illustrator 13.0.2, SVG Export Plug-In . SVG Version: 6.00 Build 14948)  -->
<!DOCTYPE svg PUBLIC "-//W3C//DTD SVG 1.1//EN" "http://www.w3.org/Graphics/SVG/1.1/DTD/svg11.dtd">
<svg version="1.1" id="Ebene_1" xmlns="http://www.w3.org/2000/svg" xmlns:xlink="http://www.w3.org/1999/xlink" x="0px" y="0px"
	 width="566.93px" height="175.404px" viewBox="0 0 566.93 175.404" enable-background="new 0 0 566.93 175.404"
	 xml:space="preserve">
<polygon fill="#FFDD00" points="0,171.898 566.928,171.898 566.928,174.732 0,174.732 0,171.898 "/>
<polygon fill="#FFDD00" points="0,158.676 566.928,158.676 566.928,161.51 0,161.51 0,158.676 "/>
<polygon fill="#FFDD00" points="0,145.459 566.928,145.451 566.928,148.287 0,148.287 0,145.459 "/>
<polygon fill="#FFDD00" points="566.926,0 566.926,125.111 0,125.111 0,0 566.926,0 "/>
<path fill="#D50029" d="M99.7,22.468L81.587,47.076c0,0,93.9,0,98.717,0c4.99,0,4.924,1.896,2.485,5.199
	c-2.477,3.355-6.622,9.188-9.145,12.594c-1.28,1.729-3.595,4.879,4.076,4.879c8.11,0,40.369,0,40.369,0s6.507-8.855,11.96-16.257
	c7.421-10.069,0.644-31.023-25.883-31.023C180.423,22.468,99.7,22.468,99.7,22.468L99.7,22.468z"/>
<path fill="#D50029" d="M74.258,102.637l36.381-49.432c0,0,40.331,0,45.146,0c4.99,0,4.925,1.896,2.486,5.2
	c-2.477,3.354-6.69,9.125-9.213,12.532c-1.281,1.729-3.595,4.884,4.075,4.884c8.11,0,60.481,0,60.481,0
	c-5.029,6.891-21.346,26.816-50.642,26.816C139.229,102.637,74.258,102.637,74.258,102.637L74.258,102.637z"/>
<path fill="#D50029" d="M282.613,75.814l-19.729,26.822h-52.042c0,0,19.718-26.816,19.735-26.816L282.613,75.814L282.613,75.814z"/>
<polygon fill="#D50029" points="362.34,69.748 235.048,69.748 269.857,22.468 321.883,22.468 301.932,49.578 325.156,49.578 
	345.115,22.468 397.137,22.468 362.34,69.748 "/>
<path fill="#D50029" d="M357.871,75.821l-19.738,26.816h-52.021c0,0,19.717-26.816,19.734-26.816H357.871L357.871,75.821z"/>
<polygon fill="#D50029" points="0,86.395 76.668,86.395 72.48,92.092 0,92.092 0,86.395 "/>
<polygon fill="#D50029" points="0,75.821 84.457,75.821 80.261,81.51 0,81.51 0,75.821 "/>
<polygon fill="#D50029" points="0,96.975 68.883,96.977 64.715,102.637 0,102.637 0,96.975 "/>
<polygon fill="#D50029" points="566.93,92.092 490.557,92.092 494.748,86.396 566.93,86.396 566.93,92.092 "/>
<polygon fill="#D50029" points="566.93,102.637 482.793,102.645 486.959,96.977 566.93,96.975 566.93,102.637 "/>
<polygon fill="#D50029" points="502.527,75.821 566.93,75.821 566.93,81.513 498.34,81.518 502.527,75.821 "/>
<path fill="#D50029" d="M469.188,22.468l-34.803,47.28h-55.129c0,0,34.813-47.28,34.83-47.28H469.188L469.188,22.468z"/>
<path fill="#D50029" d="M374.795,75.821c0,0-3.803,5.198-5.65,7.695c-6.535,8.832-0.758,19.121,20.568,19.121
	c24.629,0,83.553,0,83.553,0L493,75.821H374.795L374.795,75.821z"/>
<path fill="#D50029" d="M169.166,146.412c-1.912-0.838-3.412-1.469-7.864-1.469c-9.297,0-20.535,6.002-27.193,15.023
	c-6.875,9.316-4.855,15.275,4.792,15.275c4.758,0,8.196-0.756,10.257-1.301l11.241-15.234h-10.781l-2.54,3.441h6.417l-6.565,8.896
	c-1.246,0.211-2.249,0.504-5.26,0.504c-6.33,0-8.104-4.574-3.026-11.457c4.831-6.545,13.125-11.455,20.152-11.455
	c3.928,0,5.747,0.672,6.895,2.014L169.166,146.412L169.166,146.412z"/>
<polygon fill="#D50029" points="156.246,174.732 173.353,174.732 176.082,171.045 163.336,171.045 182.226,145.459 177.861,145.459 
	156.246,174.732 "/>
<path fill-rule="evenodd" clip-rule="evenodd" fill="#D50029" d="M188.952,160.092c4.397-5.957,11.802-11.498,18.493-11.455
	c6.753-0.043,5.983,5.498,1.586,11.455c-4.305,5.834-11.466,11.457-18.494,11.457C183.51,171.549,184.648,165.926,188.952,160.092
	L188.952,160.092z M184.325,160.092c-6.565,8.896-5.81,15.15,3.487,15.15c9.297,0,19.28-6.254,25.845-15.15
	c6.41-8.686,5.767-15.148-3.487-15.148C200.917,144.943,190.735,151.406,184.325,160.092L184.325,160.092z"/>
<path fill-rule="evenodd" clip-rule="evenodd" fill="#D50029" d="M208.971,174.732l8.121,0.006c6.198,0,12.726-1.512,17.371-7.805
	c3.035-4.113,2.03-6.715-1.869-7.051l0.063-0.084c4.522-0.924,8.453-2.938,11.426-6.965c3.995-5.414,1.085-7.375-5.244-7.375h-8.25
	L208.971,174.732L208.971,174.732z M223.186,161.395h2.838c3.753,0,7.436,0.629,4.091,5.16c-2.911,3.945-7.035,4.742-10.963,4.742
	h-3.274L223.186,161.395L223.186,161.395z M232.414,148.889h4.583c2.532,0,4.98,0.881,2.411,4.363
	c-3.19,4.322-7.048,4.701-11.282,4.701h-2.4L232.414,148.889L232.414,148.889z"/>
<path fill-rule="evenodd" clip-rule="evenodd" fill="#D50029" d="M232.527,174.732h4.578l8.552-7.381h14.928l-2.348,7.381h4.748
	l8.745-29.273h-4.579L232.527,174.732L232.527,174.732z M261.728,163.912h-12.134l16.782-14.52L261.728,163.912L261.728,163.912z"/>
<polygon fill="#D50029" points="267.351,174.732 284.457,174.732 287.188,171.045 274.441,171.045 293.332,145.459 288.967,145.459 
	267.351,174.732 "/>
<path fill="#D50029" d="M289.711,174.73h10.521l9.121-12.361c4.645-6.293,8.98-9.158,12.721-9.158c2.98,0,2.383,2.473-0.063,5.787
	l-11.609,15.732h10.52l9.121-12.361c4.645-6.293,8.98-9.158,12.721-9.158c2.98,0,2.383,2.473-0.063,5.787l-11.609,15.732h10.52
	l12.729-17.25c5.848-7.922,7.385-12.697-1.383-12.697c-4.324,0-9.602,1.686-14.959,5.619c1.184-3.822-1.055-5.619-5.379-5.619
	c-4.793,0-10.369,1.854-15.584,6.068h-0.117l3.98-5.396h-9.584L289.711,174.73L289.711,174.73z"/>
<path fill-rule="evenodd" clip-rule="evenodd" fill="#D50029" d="M377.857,174.73c1.232-2.303,2.816-4.607,4.516-6.91l8.045-10.9
	c6.592-8.934,2.234-12.137-5.539-12.137c-4.5,0-8.873,0.617-13.691,2.078l-4.883,6.855c4.084-1.572,7.93-2.191,11.318-2.191
	c3.801,0,6.109,1.068,3.225,5.057c-1.178-0.225-2.924-0.393-4.619-0.393c-5.611,0-16.51,1.066-23.104,10
	c-4.686,6.35-1.422,9.215,4.598,9.215c4.324,0,8.449-1.629,13.541-5.281h0.117c-1.119,1.518-2.064,3.035-3.166,4.607H377.857
	L377.857,174.73z M363.484,165.461c2.072-2.811,5.666-3.877,9.23-3.877c1.578,0,3.016,0.111,4.318,0.168
	c-2.529,3.428-7.613,6.91-11.588,6.91C362.99,168.662,361.99,167.482,363.484,165.461L363.484,165.461z"/>
<path fill-rule="evenodd" clip-rule="evenodd" fill="#D50029" d="M402.244,151.176l4.223-5.721h10.52l-4.223,5.721H402.244
	L402.244,151.176z M384.863,174.729l15.287-20.717h10.521l-15.287,20.717H384.863L384.863,174.729z"/>
<polygon fill="#D50029" points="403.623,174.729 414.145,174.729 435.746,145.455 425.227,145.455 403.623,174.729 "/>
</svg>
