<svg height="268" viewBox="-.82633449 -.82633449 111.73641898 29.19715198" width="1024" xmlns="http://www.w3.org/2000/svg"><g fill="#314a94"><path d="m15.94 17.1075.14376 3.12625.11-.11125 1.38499-3.26625 7.1675-14.81375 5.08376.02375v25.295h-4.56376v-18.12625c-.49875 1.33625-.95249 2.8375-1.45125 4.21875l-6.8125 13.66h-4.6625l-1.75124-13.9325c-.1325-1.29-.19876-2.61-.155-3.97125h-.07751l-1.35125 4.80875-4.08749 13.045-.06626.05h-4.85125l8.52875-25.07125h5.505z"/><path d="m39.01375 21.4425c.11.8125.47625 1.79 1.40626 2.0375 1.495.3875 2.85749-.3175 3.78875-1.4975.92999-1.315 1.38375-2.8375 1.3625-4.53625v-8.77625h4.74124v18.44375h-4.45375c.03375-1.08875.03375-2.2225.2325-3.27125-.51999.82125-1.25125 1.815-2.16 2.45-2.01624 1.4525-5.41625 1.72875-7.57625.36375-1.4075-.97375-1.905-2.51625-2.05999-4.10375l-.0225-13.8825h4.67374z"/><path d="m81.61625 12.25c-1.14124.75-1.63999 1.93-1.7725 3.155h6.75626c.045-.97375-.19875-1.84-.72001-2.5825-.99625-1.25375-2.99-1.31875-4.26375-.5725zm8.23-1.11c1.45126 2.0875 1.70626 4.87875 1.34001 7.51h-11.43126c-.08875 1.70375.35375 3.35375 1.81625 4.35625 2.55875 1.4725 6.1475.68 8.64001-.33875l.455 3.625c-4.02125 1.4725-9.98126 2.1325-13.38126-1.08875-2.63624-2.79125-2.79125-7.25875-1.86124-10.8875.65374-2.70125 3.245-5.39875 6.05874-5.8575 3.1125-.565 6.44751 0 8.36375 2.68125"/><path d="m62.08626 12.52125c-3.655 2.24875-2.3925 7.01125-2.61376 10.86875 1.16376.34125 2.63625.4075 3.83251.14 1.11875-.2975 2.2275-1.32 2.615-2.43.80874-2.3375 1.01874-5.74-.36625-7.89375-.79751-1.0675-2.35876-1.15875-3.4675-.685zm-2.6575-1.2c.97499-2.2925 3.39999-3.2 5.84875-3.01875 1.94874.11125 3.78749 1.0225 4.89625 2.8175 1.85999 3.24125 1.75 8.18625.09874 11.49875-1.65 3.33625-5.10625 4.89875-8.6625 4.87375-2.47.025-4.79624-.2675-6.945-.8825v-26.61h4.71875z"/><path d="m99.80501 20.23375c-.65375.57-.84251 1.4775-.61 2.31875.11125.4775.56499.9525 1.01874 1.11375 1.02.3825 2.24876.13125 3.09126-.43375 1.37374-1.0225 1.94999-2.545 1.90499-4.24375-1.96.04125-3.93249.04125-5.40499 1.245zm9.39249-9.23c.49875.9325.72001 1.99625.77626 3.11l.02124 10.8225.08875 2.1775h-4.475c-.04374-1.0275.0775-1.975.1225-2.99875-1.14125 2.1775-3.5225 3.44875-5.99375 3.3775-1.81625-.045-3.58874-.585-4.56374-2.2425-.8525-1.4725-.80875-3.7625-.02126-5.2425 2.16001-3.49375 6.17-3.98875 10.0575-4.12875.11125-1.33625.08876-2.7875-1.18499-3.4925-1.70625-.8175-4.0325-.43-5.76001.09375-.75374.2025-1.42874.52-2.09374.88375l-.39876-3.9725c3.44501-1.2 8.0975-1.72 11.58625-.18125.73126.39125 1.45125 1.04375 1.83875 1.79375"/></g></svg>