<?xml version="1.0" encoding="UTF-8"?>
<svg width="284pt" xmlns:xlink="http://www.w3.org/1999/xlink" xmlns="http://www.w3.org/2000/svg" height="78pt" viewBox="0 0 284 78" >
 <g transform="translate(0.605469, 0.328125)" style="fill:#feca00; fill-rule:nonzero; stroke:none; stroke-width:1; stroke-linecap:butt; stroke-linejoin:miter; stroke-dasharray:none;" >
  <path d="M0 0 C0 0 283.278 0 283.278 0 C283.278 0 283.278 76.8926 283.278 76.8926 C283.278 76.8926 0 76.8926 0 76.8926 C0 76.8926 0 0 0 0 Z" />
 </g>
 <g transform="translate(195.271, 35.043)" style="fill:#003677; fill-rule:evenodd; stroke:none; stroke-width:1; stroke-linecap:butt; stroke-linejoin:miter; stroke-dasharray:none;" >
  <path d="M2.352 6.0371 C4.117 4.7041 6.351 3.8418 8.585 3.8418 C11.683 3.8418 13.133 4.9394 13.133 8.1933 C13.133 8.1933 10.233 8.1933 10.233 8.1933 C8.037 8.1933 5.45 8.3896 3.45 9.3701 C1.451 10.3496 0 12.1142 0 15.1328 C0 18.9746 3.49 21.1308 7.057 21.1308 C9.449 21.1308 12.075 19.8769 13.291 17.6416 C13.291 17.6416 13.369 17.6416 13.369 17.6416 C13.408 18.2695 13.408 19.6015 13.604 20.6601 C13.604 20.6601 18.23 20.6601 18.23 20.6601 C18.113 19.0927 18.034 17.6806 17.995 16.1523 C17.956 14.6621 17.917 13.1338 17.917 11.0947 C17.917 11.0947 17.917 8.5068 17.917 8.5068 C17.917 2.5478 15.369 0 9.213 0 C6.979 0 4.234 0.5879 2.196 1.5293 C2.196 1.5293 2.352 6.0371 2.352 6.0371 Z M5.018 14.8193 C5.018 11.7216 8.507 11.33 10.86 11.33 C10.86 11.33 13.133 11.33 13.133 11.33 C13.133 12.8984 12.898 14.3486 12.036 15.4853 C11.212 16.583 9.958 17.289 8.351 17.289 C6.469 17.289 5.018 16.5439 5.018 14.8193 Z" />
 </g>
 <g transform="translate(117.529, 34.8311)" style="fill:#003677; fill-rule:evenodd; stroke:none; stroke-width:1; stroke-linecap:butt; stroke-linejoin:miter; stroke-dasharray:none;" >
  <path d="M0 10.9169 C0 16.8359 3.882 21.5556 10.547 21.5556 C17.25 21.5556 21.132 16.8359 21.132 10.9169 C21.132 4.1191 16.545 0 10.547 0 C4.587 0 0 4.1191 0 10.9169 Z M5.49 10.2724 C5.49 7.1621 7.136 4.0927 10.547 4.0927 C13.996 4.0927 15.643 7.082 15.643 10.2724 C15.643 13.746 14.584 17.4619 10.547 17.4619 C6.548 17.4619 5.49 13.706 5.49 10.2724 Z" />
 </g>
 <g transform="translate(156.779, 29.79)" style="fill:#003677; fill-rule:nonzero; stroke:none; stroke-width:1; stroke-linecap:butt; stroke-linejoin:miter; stroke-dasharray:none;" >
  <path d="M3.881 19.837 C3.881 23.836 6.156 26.3838 10.272 26.3838 C11.84 26.3838 13.055 26.2276 14.153 25.9131 C14.153 25.9131 13.996 21.7579 13.996 21.7579 C13.448 22.1104 12.545 22.3067 11.605 22.3067 C9.605 22.3067 9.135 20.6993 9.135 18.9746 C9.135 18.9746 9.135 9.5655 9.135 9.5655 C9.135 9.5655 13.8 9.5655 13.8 9.5655 C13.8 9.5655 13.8 5.7237 13.8 5.7237 C13.8 5.7237 9.135 5.7237 9.135 5.7237 C9.135 5.7237 9.135 0 9.135 0 C9.135 0 3.881 1.6856 3.881 1.6856 C3.881 1.6856 3.881 5.7237 3.881 5.7237 C3.881 5.7237 0 5.7237 0 5.7237 C0 5.7237 0 9.5655 0 9.5655 C0 9.5655 3.881 9.5655 3.881 9.5655 C3.881 9.5655 3.881 19.837 3.881 19.837 Z" />
 </g>
 <g transform="translate(141.281, 35.043)" style="fill:#003677; fill-rule:nonzero; stroke:none; stroke-width:1; stroke-linecap:butt; stroke-linejoin:miter; stroke-dasharray:none;" >
  <path d="M13.644 0.7451 C11.997 0.3916 10.39 0 7.92 0 C3.803 0 0 1.9209 0 6.2724 C0 13.5644 9.135 10.8593 9.135 14.8193 C9.135 16.7793 7.018 17.289 5.685 17.289 C3.882 17.289 2.157 16.7793 0.51 15.956 C0.51 15.956 0.197 20.2685 0.197 20.2685 C2.117 20.7783 4.157 21.1308 6.156 21.1308 C10.429 21.1308 14.623 19.249 14.623 14.5449 C14.623 7.2529 5.49 9.291 5.49 6.0761 C5.49 4.3515 7.175 3.8418 8.586 3.8418 C10.507 3.8418 11.684 4.1552 13.29 4.7041 C13.29 4.7041 13.644 0.7451 13.644 0.7451 Z" />
 </g>
 <g transform="translate(217.722, 35.043)" style="fill:#003677; fill-rule:nonzero; stroke:none; stroke-width:1; stroke-linecap:butt; stroke-linejoin:miter; stroke-dasharray:none;" >
  <path d="M0 20.6601 C0 20.6601 5.254 20.6601 5.254 20.6601 C5.254 20.6601 5.254 10.7812 5.254 10.7812 C5.254 8.1933 6.077 4.0771 9.88 4.0771 C13.251 4.0771 13.291 7.4091 13.291 9.8789 C13.291 9.8789 13.291 20.6601 13.291 20.6601 C13.291 20.6601 18.544 20.6601 18.544 20.6601 C18.544 20.6601 18.544 7.9189 18.544 7.9189 C18.544 3.3711 16.466 0 11.683 0 C8.938 0 6.704 0.9013 5.057 3.2148 C5.057 3.2148 4.979 3.2148 4.979 3.2148 C4.979 3.2148 4.979 0.4707 4.979 0.4707 C4.979 0.4707 0 0.4707 0 0.4707 C0 0.4707 0 20.6601 0 20.6601 Z" />
 </g>
 <g transform="translate(240.776, 26.3008)" style="fill:#003677; fill-rule:nonzero; stroke:none; stroke-width:1; stroke-linecap:butt; stroke-linejoin:miter; stroke-dasharray:none;" >
  <path d="M0 29.4023 C0 29.4023 5.253 29.4023 5.253 29.4023 C5.253 29.4023 5.253 19.6015 5.253 19.6015 C5.253 19.6015 5.331 19.6015 5.331 19.6015 C5.331 19.6015 12.075 29.4023 12.075 29.4023 C12.075 29.4023 18.74 29.4023 18.74 29.4023 C18.74 29.4023 10.272 18.2295 10.272 18.2295 C10.272 18.2295 17.799 9.2129 17.799 9.2129 C17.799 9.2129 11.605 9.2129 11.605 9.2129 C11.605 9.2129 5.331 17.289 5.331 17.289 C5.331 17.289 5.253 17.289 5.253 17.289 C5.253 17.289 5.253 0 5.253 0 C5.253 0 0 0 0 0 C0 0 0 29.4023 0 29.4023 Z" />
 </g>
 <g transform="translate(173.516, 26.3008)" style="fill:#003677; fill-rule:evenodd; stroke:none; stroke-width:1; stroke-linecap:butt; stroke-linejoin:miter; stroke-dasharray:none;" >
  <path d="M5.096 19.249 C5.096 16.4258 6.458 12.8193 9.829 12.8193 C13.24 12.8193 14.264 16.5439 14.264 19.249 C14.264 22.0322 13.201 25.7959 9.751 25.7959 C6.261 25.7959 5.096 22.1103 5.096 19.249 Z M0 29.4023 C0 29.4023 4.928 29.4023 4.928 29.4023 C4.928 29.4023 4.928 26.8486 4.928 26.8486 C6.38 28.8164 8.639 29.873 10.977 29.873 C17.031 29.873 19.53 24.7763 19.53 19.249 C19.53 13.6816 17.237 8.7422 11.201 8.7422 C8.532 8.7422 6.462 10.0117 5.086 11.9121 C5.086 11.9121 5.086 0 5.086 0 C5.086 0 0 0 0 0 C0 0 0 29.4023 0 29.4023 Z" />
 </g>
 <g transform="translate(98.8867, 28.3389)" style="fill:#003677; fill-rule:evenodd; stroke:none; stroke-width:1; stroke-linecap:butt; stroke-linejoin:miter; stroke-dasharray:none;" >
  <path d="M5.4883 4.3125 C5.4883 4.3125 7.4093 4.3125 7.4093 4.3125 C10.2323 4.3125 12.6233 5.4101 12.6233 8.5859 C12.6233 11.7617 10.1533 12.6631 7.4093 12.6631 C7.4093 12.6631 5.4883 12.6631 5.4883 12.6631 C5.4883 12.6631 5.4883 4.3125 5.4883 4.3125 Z M0 27.3642 C0 27.3642 5.4883 27.3642 5.4883 27.3642 C5.4883 27.3642 5.4883 16.9756 5.4883 16.9756 C5.4883 16.9756 7.8013 16.9756 7.8013 16.9756 C13.6813 16.9756 18.3473 14.6621 18.3473 8.2724 C18.3473 1.7246 12.8973 0 6.9383 0 C6.9383 0 0 0 0 0 C0 0 0 27.3642 0 27.3642 Z" />
 </g>
 <g transform="translate(24.9717, 18.3174)" style="fill:#003677; fill-rule:nonzero; stroke:none; stroke-width:1; stroke-linecap:butt; stroke-linejoin:miter; stroke-dasharray:none;" >
  <path d="M23.7832 0.6494 C23.7832 0.6494 48.5205 0 48.5205 0 C29.331 11.4639 22.876 29.0478 21.2676 39.873 C21.2676 39.873 0 39.873 0 39.873 C1.5586 28.0088 11.1748 8.3457 23.7832 0.6494 Z" />
 </g>
 <g transform="translate(65.123, 34.5674)" style="fill:#003677; fill-rule:nonzero; stroke:none; stroke-width:1; stroke-linecap:butt; stroke-linejoin:miter; stroke-dasharray:none;" >
  <path d="M19.6133 0 C9.8233 6.1377 6.961 15.7998 6.3633 19.4912 C6.3633 19.4912 0 19.4912 0 19.4912 C1.1026 12.9941 5.1885 4.5791 11.2256 0.1631 C11.2764 0.126 19.6133 0 19.6133 0 Z" />
 </g>
 <g transform="translate(50.4072, 28.0938)" style="fill:#e20010; fill-rule:nonzero; stroke:none; stroke-width:1; stroke-linecap:butt; stroke-linejoin:miter; stroke-dasharray:none;" >
  <path d="M15.3526 0.4062 C15.3526 0.4062 29.8477 0 29.8477 0 C17.9492 6.2822 12.0196 19.4687 11.0244 27.6093 C11.0244 27.6093 0 27.6093 0 27.6093 C0.9336 20.9335 5.502 7.7929 15.3526 0.4062 Z" />
 </g>
</svg>
